<svg width="222" height="223" viewBox="0 0 222 223" fill="none" xmlns="http://www.w3.org/2000/svg">
<rect x="5" y="4" width="212" height="212" rx="100" fill="#F9F9F9"/>
<path d="M50.3648 55.7847C43.023 66.6628 41.1623 80.1908 44.5161 95.5724C35.1414 104.596 28.5923 113.969 28.678 122.548C28.6707 147.656 84.2695 179.907 106.457 188.473C122.899 194.833 140.232 192.704 155.267 182.441C158.625 180.142 161.808 177.488 164.728 174.568C193.473 146.179 193.758 99.9366 165.386 71.213C164.329 65.7313 162.119 60.5169 159.028 55.8325C148.953 40.8072 129.684 32.5023 104.748 32.5118C79.8156 32.5212 60.4515 40.7518 50.3648 55.7847ZM63.0573 156.928C44.7626 143.583 34.7775 131.297 34.6918 122.544C34.6919 116.708 39.2044 109.722 46.191 102.558C47.0003 105.157 47.9145 107.723 48.9313 110.248L50.4317 114.05C56.2621 128.547 65.0955 150.295 76.2274 166.029C71.9856 163.199 67.4769 160.11 63.0573 156.928ZM180.222 122.489C180.211 143.885 169.065 165.462 151.642 177.227C139.438 185.544 125.732 187.934 112.384 183.961C116.981 182.015 121.049 179.183 124.497 175.558C139.623 160.432 151.217 131.695 158.474 113.833L159.978 110.03C163.867 101.056 166.001 91.4217 166.267 81.6473C175.104 93.4893 180.051 107.811 180.222 122.489ZM154.321 107.908L152.728 111.626C146.622 126.744 134.407 156.987 119.991 171.403C115.039 176.356 109.82 179.453 104.518 179.457C83.649 179.465 64.4818 131.995 56.3575 111.66C55.8263 110.248 55.295 109.009 54.8571 107.859C53.5279 104.589 52.2922 101.23 51.4102 97.6945C67.8599 83.0107 92.7975 68.4995 108.717 62.3038C123.218 56.6404 138.427 58.5792 151.773 67.6828C154.513 69.5373 157.164 71.6588 159.551 74.0452C161.138 83.9476 159.363 95.4377 154.321 107.908ZM153.718 59.1941C154.517 60.522 155.399 61.9345 156.017 63.2603C155.753 62.9956 155.399 62.8156 155.223 62.6399C140.196 52.3889 122.778 50.1862 106.418 56.6489C93.156 61.7801 68.0408 75.406 49.822 90.7958C47.7931 78.5106 49.6528 67.8083 55.4051 59.2314C56.7319 57.1973 58.2343 55.517 59.9148 53.8365C69.6435 44.1079 85.4733 38.7087 104.57 38.6993C127.025 38.515 144.882 46.115 153.718 59.1941Z" fill="black"/>
</svg>
