<svg width="159" height="160" viewBox="0 0 159 160" fill="none" xmlns="http://www.w3.org/2000/svg">
<path d="M22.3648 23.4637C15.023 34.3417 13.1623 47.8697 16.5161 63.2514C7.14139 72.2746 0.592292 81.6483 0.678019 90.2274C0.670665 115.335 56.2695 147.586 78.4573 156.152C94.899 162.512 112.232 160.383 127.267 150.12C130.625 147.821 133.808 145.167 136.728 142.247C165.473 113.858 165.758 67.6156 137.386 38.892C136.329 33.4103 134.119 28.1959 131.028 23.5115C120.953 8.48616 101.684 0.181315 76.7477 0.190776C51.8156 0.200233 32.4515 8.43075 22.3648 23.4637ZM35.0573 124.607C16.7626 111.262 6.7775 98.9756 6.69184 90.2229C6.69189 84.387 11.2044 77.4014 18.191 70.2368C19.0003 72.8363 19.9145 75.4019 20.9313 77.9273L22.4317 81.729C28.2621 96.2264 37.0955 117.974 48.2274 133.708C43.9856 130.878 39.4769 127.789 35.0573 124.607ZM152.222 90.1677C152.211 111.564 141.065 133.141 123.642 144.906C111.438 153.223 97.7317 155.613 84.3838 151.64C88.9812 149.694 93.0494 146.862 96.4972 143.237C111.623 128.111 123.217 99.3741 130.474 81.5122L131.978 77.7093C135.867 68.7352 138.001 59.1007 138.267 49.3263C147.104 61.1683 152.051 75.4902 152.222 90.1677ZM126.321 75.5868L124.728 79.3051C118.622 94.4233 106.407 124.666 91.9911 139.082C87.0388 144.035 81.8203 147.132 76.5183 147.136C55.649 147.144 36.4818 99.674 28.3575 79.3395C27.8263 77.9268 27.295 76.6878 26.8571 75.5377C25.5279 72.2676 24.2922 68.9085 23.4102 65.3735C39.8599 50.6897 64.7975 36.1784 80.7166 29.9828C95.2184 24.3194 110.427 26.2582 123.773 35.3617C126.513 37.2163 129.164 39.3378 131.551 41.7242C133.138 51.6266 131.363 63.1167 126.321 75.5868ZM125.718 26.8731C126.517 28.201 127.399 29.6135 128.017 30.9393C127.753 30.6746 127.399 30.4946 127.223 30.3189C112.196 20.0679 94.7781 17.8651 78.4183 24.3279C65.156 29.4591 40.0408 43.085 21.822 58.4748C19.7931 46.1896 21.6528 35.4873 27.4051 26.9104C28.7319 24.8763 30.2343 23.196 31.9148 21.5155C41.6435 11.7868 57.4733 6.38771 76.5695 6.3783C99.0254 6.19398 116.882 13.794 125.718 26.8731Z" fill="black"/>
</svg>
