<svg width="443" height="996" viewBox="0 0 443 996" fill="none" xmlns="http://www.w3.org/2000/svg">
<path d="M323.239 264.326L316.935 268.13L316.717 273.674V275.522L318.674 283.783L319.109 288.457L319.217 290.63L317.696 293.565L311.935 299.217L309.544 302.37L307.478 306.826L306.826 310.304L308.783 334.217L309.978 341.174L315.196 356.5V358.674L315.304 359.435L313.891 362.804L311.826 364.978L308.565 366.935L304.978 368.457L292.913 371.174L293.891 375.848L293.13 384.652L294.87 389.544L297.587 390.848L299.543 392.804L302.152 397.913L302.696 398.891L303.457 401.391L304 406.717L304.435 408.565L306.174 409.978L310.304 410.739L312.152 411.935L315.087 416.065L316.283 419.435L316.609 420.196L316.5 424.652L314.87 430.087L312.478 434.544L309.217 438.674L305.739 440.848L302.152 439.652L301.283 446.174L301.174 446.826L302.587 456.717L306.717 474.326L309.87 482.696L319 495.63L322.804 503.239L324.109 510.63L323.891 516.391L325.63 520.848L330.739 523.239L332.696 524.109L336.065 524.435L339.109 524.326L339.761 524.435L341.935 524.761L344.652 526.826L347.152 532.044L351.935 553.457L356.717 572.261L360.196 579.761L363.565 582.587L366.065 584.761L372.261 586.065L376.609 584.326L384.87 577.478L389.652 576.283L389.87 576.174L402.913 578.131L415.196 581.717L419.326 585.739L421.283 591.935L421.391 600.522L421.826 615.957L420.304 622.913L416.065 627.913L418.457 629.978L419.435 632.37L419.87 634.978L420.957 637.478L428.022 644.109L434.544 652.152L437.044 656.717L438.674 662.37L439 668.783L438.13 674.761L435.522 686.065L435.087 689.761L434.978 692.478L434.544 694.978L433.239 698.239L431.609 700.087L429.326 701.391L427.043 703.239L425.413 706.609L422.152 707.478L419.544 709.217L418.131 712.152L418.239 716.174L417.587 718.022L416.717 719.652L414.435 723.022L408.239 727.261L402.696 725.848L397.152 723.13L390.522 723.348L387.261 725.522L385.848 728.239L384.978 731.391L382.913 734.652L380.739 735.848L375.63 737.152L373.457 739.435L373.022 742.478L374.109 751.283L374.217 754.652L373.348 758.674L372.261 761.283L369.544 766.391L365.739 775.848L365.087 777.696L363.13 779.435L360.413 780.848L357.696 782.696L355.739 785.848L354.652 793.239L355.196 799.652L355.087 806.283L352.37 814L351.065 815.087L347.37 816.174L346.283 817.913L346.065 819.978L346.935 823.457L347.044 825.196L348.13 831.174L347.804 832.587L344.109 843.022L343.022 845.304L341.283 846.609L335.087 849.544L325.848 853.891L319.761 854.544L306.717 852.587L302.152 853.783L298.348 856.065L290.087 855.087L285.413 857.152L282.152 861.065L279.326 866.174L277.261 871.826L276.283 877.587L272.152 878.457L259.87 878.891L256.935 879.761L258.13 882.37L261.826 901.826L263.13 903.783L269 909.652L280.304 928.457L281.283 934.109L279.326 940.413L275.087 944.87L270.848 944.435L266.5 941.826L257.261 938.239L256.935 938.131L254.544 937.696L252.478 938.565L250.739 940.957L251.391 942.261L252.804 943.674L253.674 946.174L253.239 947.804L251.717 951.718L251.391 952.696L252.043 953.783L253.783 955.957L254.217 956.935L255.196 959.761L256.5 961.174L257.261 962.913L256.5 966.391L253.13 970.522L248.565 973.13L244.87 976.826L244.109 983.783L241.935 982.478L239.761 981.826H237.696L235.739 982.478L233.783 984.652L233.457 987.044L233.565 989.435L232.696 991.065L228.891 992.044L223.783 989.761L216.826 983.348L205.522 977.478L195.63 974.217L187.37 971.5L183.457 974L182.696 974.326L182.478 976.174H180.739L179.435 971.5L180.196 966.174L184.109 956.5L179.87 954.652L178.674 953.565L182.478 945.304L186.935 929.326L187.478 925.413L185.848 918.783L183.239 916.935L179.435 916.609L174 914.652L173.674 913.891L173.565 912.587L173.348 911.174L172.37 910.087L169 908.131L166.5 907.152L162.261 906.935L160.413 905.631V903.674L164 899.109L166.391 896.609L169 894.87L164.652 890.739L153.13 868.348L151.5 864.435L149.761 860.957L147.804 859.544L139.87 859.326L135.957 858.565L133.348 857.152L135.304 855.196L128.565 850.522L127.478 852.696L127.152 853.565L126.935 855.196L126.065 852.261L124.87 850.848L123.348 849.87L121.717 848.348L121.391 847.044L119.544 843.239L117.587 840.087L116.609 840.739L114.217 838.239L97.913 832.913L84.3261 824.761L76.3913 817.696L62.4783 812.913L54.3261 806.717L30.8478 780.413L28.1305 775.957L26.9348 773.239L23.5652 758.783L21.8261 754.761L13.1304 746.283L10.087 742.152L9.76089 740.848V740.413L8.34783 739.87V737.696L14.8696 734.217L18.8913 733.891L22.8044 736.609L31.6087 747.37L33.8913 750.957L37.1522 758.565L38.4565 763.348L39.1087 767.696L41.3913 769.109L46.5 767.913L51.7174 765.413L54 763.239L55.6304 733.891L54.9783 729L48.6739 725.304L40.1957 716.717L33.4565 707.044L32.1522 700.087L33.8913 702.044L34.5435 704.544L35.1957 707.37L37.2609 706.717H39.1087L43.7826 712.152L46.9348 710.522L48.5652 704.435L49 696.609L45.9565 690.413L39.4348 687.044L33.4565 688.674L32.1522 697.696L30.4131 692.696L13.3478 667.261L11.9348 664.435L13.2391 660.522L16.5 657.37L20.5218 654.326L23.5652 651.065L25.8478 645.957L26.8261 640.522L27.0435 621.174L27.913 615.957L30.087 612.37L34.6522 611.065L37.2609 609.87L36.5 607.152L34.7609 604L33.8913 602.044L34.9783 599.435L36.7174 596.717L38.3478 594.761L39.1087 594.217L37.0435 590.522L33.3478 585.63L30.9565 581.391L33.0218 579.544L36.8261 578.131L41.6087 571.174L45.6305 568.239L42.2609 572.044L44.3261 579.652L42.2609 586.174V593.13H44.1087L44.8696 588.457V589.435L45.1956 590.522L45.6305 593.13L48.8913 588.674L61.8261 582.37L65.9565 577.37L66.3913 569.326L63.7826 562.913L60.5217 556.935L59.1087 550.522L58.2391 558.891L55.1957 566.5L48.7826 576.283V574.761L47.3696 572.913L49.9783 570.196L52.8043 565.522L54.5435 559.544L54 552.804L52.8043 551.174L48.7826 549.544L47.3696 548.348L45.5218 544.652L45.7391 542.913L46.7174 541.391L49.4348 516.5L48.1304 511.283L46.7174 509.109L45.7391 506.5L45.8478 504.326L51.2826 501.935L52.1522 498.239V493.783L52.4783 490.087L62.587 473.783L64.3261 467.478L63.4565 460.848L60.9565 455.087L57.2609 451.065L53.2392 449.544H47.913L43.3478 448.674L40.1957 445.848L39.1087 439.544V426.065L38.2391 423.13L34.5435 419.652L33.8913 415.957L37.1522 420.196L42.587 419.978L46.7174 415.413L45.6305 406.935L51.5 403.674L57.587 398.674L62.3696 391.826L64.3261 383.022L63.6739 377.587L61.9348 375.522L59.3261 374.761L55.8478 373.022L52.3696 369.652L48.3479 362.913L45.6305 359.326L67.1522 362.261L74.1087 360.087L76.2826 359.435L81.0652 348.13H82.8044L82.9131 351.717L83.8913 353.674L85.6304 354L88.0218 352.804L86.0652 344L84.8696 341.609L82.8044 343.783L81.7174 341.174L74.4348 334.544L79.4348 325.63L79 315.304L77.6957 304.217L77.8043 298.348L82.2609 299.87L84.5435 295.522L84.7609 288.565L82.8044 282.261L81.1739 282.37L51.7174 270.196L48.1304 267.804L43.6739 265.848L26.9348 271.174L26.7174 267.696L26.9348 259.109L24.9783 255.522L22.6957 253.348L22.0435 252.044L22.2609 250.63L22.0435 248.457L22.3696 246.717L23.3478 245.087L23.8913 242.696L22.3696 234.978L23.6739 233.783L25.6304 233.565L27.1522 232.37L28.4565 226.717L26.6087 224.435H26.5L24.2174 219.435L23.3478 213.022L23.6739 206.5L24.8696 200.739L29.3261 190.848L28.7826 187.696L28.1305 186.935L24.4348 182.478L10.3044 171.935L6.50002 167.587L4 162.261L4.76088 158.783L12.0435 150.848L35.6304 113.891L35.8478 112.152L35.7391 107.587L36.1739 105.196L38.5652 99.7609L39.7609 97.8044L52.3696 83.1304L55.7391 77.6957L60.5217 74.4348L64.5435 69.7609L68.0217 64.2174L70.9565 58.0217V57.913L72.3696 52.913L75.3044 50.3044L78.8913 48.3478L81.9348 44.7609L83.2391 40.7391L84.6522 32.0435L86.0652 27.3696L90.1957 20.6304L96.7174 13.0217L99.1087 10.7391L103.565 6.71739L109.326 4L114.978 6.82609L118.783 14.1087L120.848 22.6957L121.065 26.0652L121.283 29.3261L120.848 29L119.652 30.8478L117.913 34.8696L117.478 37.1522L116.935 42.2609L117.152 44.5435L117.913 47.587L122.261 58.0217L130.304 64.3261L134.543 66.3913L139 66.9348L141.283 66.2826L142.913 65.7391L152.261 60.1957L154.543 58.0217V57.913L160.63 53.6739L172.696 54L179 52.1522L187.804 40.3044L193.13 36.5L199.435 40.087L204.543 45.7391L216.826 52.587L221.065 57.913V58.0217L228.022 74.7609L229.326 76.7174L232.696 79.8696L233.891 82.4783L233.783 85.1957L231.283 89.1087L230.957 91.2826L232.152 93.3478L235.957 96.7174L237.37 98.6739L238.022 101.283L237.587 105.848L237.913 108.13L240.087 113.674L242.044 115.848L244.978 116.283L261.826 115.957L265.63 116.609L296.065 139L300.196 143.457L302.152 145.63L306.935 152.152L316.174 172.478L318.891 181.283L319.544 187.152V197.804L321.065 204L328.783 224.435L329.978 230.957L331.174 235.304V239.544L328.565 245.63L326.609 248.239L324.761 249.543L323.239 251.391L322.152 255.413V257.804L323.457 261.826L323.239 264.326Z" stroke="white" stroke-width="7.5" stroke-linecap="round" stroke-linejoin="round"/>
<path fill-rule="evenodd" clip-rule="evenodd" d="M153.105 389.051L152.913 392.21C154.943 393.044 156.932 393.959 158.875 394.952L159.188 393.178L159.189 393.174L161.611 395.144L164.03 397.835C168.798 400.739 173.24 404.133 177.287 407.948L177.031 406.837C177.026 406.818 177.022 406.799 177.017 406.78L176.495 404.692C176.489 404.67 176.483 404.648 176.477 404.626C176.387 404.296 176.244 403.983 176.054 403.698L174.745 401.736C168.265 396.47 160.98 392.169 153.105 389.051ZM169.391 394.302L166.157 390.705C166.143 390.69 166.129 390.674 166.115 390.659C166.017 390.554 165.912 390.456 165.8 390.365L162.978 388.068C162.965 388.058 162.953 388.048 162.94 388.038C162.853 387.969 162.762 387.905 162.668 387.846L160.682 386.593C160.211 386.296 159.67 386.128 159.114 386.107L156.396 386.002C156.355 386.001 156.314 386 156.273 386C156.272 386 156.27 386 156.269 386C155.543 386.001 154.87 386.248 154.332 386.666C159.625 388.717 164.664 391.283 169.391 394.302ZM186.386 418.11C189.226 421.881 191.743 425.912 193.896 430.163C193.902 430.161 193.907 430.158 193.913 430.155C194.216 430.011 194.496 429.818 194.741 429.583C194.741 429.583 194.741 429.583 194.741 429.583L196.236 428.15C195.218 426.185 194.125 424.266 192.961 422.396L192.75 422.694L191.492 423.901L190.136 421.667C190.13 421.657 190.123 421.647 190.117 421.636C190.022 421.483 189.913 421.338 189.793 421.203L188.12 419.324C188.094 419.294 188.067 419.265 188.04 419.236C187.847 419.036 187.63 418.862 187.392 418.718L186.386 418.11ZM195.312 420.026C196.603 422.01 197.815 424.052 198.943 426.145L201.744 426.101L202.998 427.456C201.694 424.824 200.265 422.267 198.719 419.791L196.367 419.828C196.336 419.828 196.304 419.829 196.273 419.83C195.941 419.846 195.617 419.913 195.312 420.026ZM206.58 421.979C209.128 426.845 211.267 431.962 212.95 437.285L213.401 437.633C213.667 437.839 213.964 438.001 214.281 438.113L216.578 438.927C215.62 435.582 214.489 432.31 213.195 429.123L206.58 421.979ZM216.955 432.318C217.838 434.8 218.626 437.328 219.315 439.896L222.724 441.104C222.096 438.563 221.375 436.059 220.564 433.597L216.955 432.318ZM227.58 436.082C228.961 440.681 230.044 445.411 230.809 450.247L231.031 450.186C231.556 450.039 232.034 449.76 232.42 449.375C232.421 449.375 232.421 449.375 232.421 449.374L233.466 448.33C233.485 448.311 233.505 448.291 233.523 448.271C232.883 444.552 232.059 440.897 231.06 437.314L227.58 436.082ZM224.787 451.923C224.499 449.801 224.146 447.699 223.731 445.62L220.833 446.427C221.243 448.507 221.589 450.611 221.869 452.736L224.787 451.923ZM219.555 453.38C219.282 451.253 218.942 449.148 218.535 447.066L216.58 447.61C216.569 447.613 216.558 447.616 216.547 447.62C216.381 447.668 216.22 447.729 216.064 447.804L215.659 447.997C216.075 450.167 216.416 452.364 216.681 454.584L216.768 454.509L218.543 453.661L219.555 453.38ZM211.921 459.102C211.679 456.438 211.322 453.808 210.854 451.217L208.199 453.498C208.76 457.015 209.111 460.603 209.238 464.249L211.921 459.102ZM205.569 467.142C205.569 467.099 205.569 467.057 205.569 467.014C205.57 466.896 205.57 466.778 205.57 466.66C205.57 463.851 205.432 461.075 205.163 458.337L203.825 460.905L202.377 461.023C202.505 462.885 202.57 464.764 202.57 466.66C202.57 467.02 202.568 467.379 202.563 467.738L203.105 467.341L205.569 467.142ZM200.115 470.155C200.167 468.996 200.193 467.831 200.193 466.66C200.193 464.999 200.14 463.35 200.037 461.715L198.518 462.827C198.51 462.833 198.502 462.839 198.494 462.846C198.372 462.936 198.258 463.035 198.151 463.142L197.151 464.141C197.179 464.977 197.193 465.817 197.193 466.66C197.193 468.762 197.105 470.843 196.934 472.9C196.94 472.897 196.945 472.893 196.951 472.89C197.035 472.837 197.117 472.78 197.196 472.719C197.196 472.719 197.196 472.719 197.196 472.719L198.555 471.675C198.664 471.591 198.767 471.501 198.864 471.404C198.864 471.404 198.864 471.404 198.864 471.404L200.115 470.155ZM191.796 473.44C192.009 471.266 192.121 469.063 192.127 466.835L192.092 466.819L191.442 466.17C191.361 466.089 191.276 466.013 191.187 465.942C190.602 465.471 189.866 465.222 189.112 465.244C189.122 465.715 189.127 466.187 189.127 466.66C189.127 468.572 189.045 470.464 188.885 472.335C188.885 472.335 188.886 472.335 188.887 472.336C188.894 472.339 188.902 472.343 188.909 472.346C188.91 472.347 188.911 472.347 188.912 472.348L190.48 473.078C190.699 473.181 190.929 473.257 191.166 473.307L191.796 473.44ZM184.631 476.468C185.141 473.273 185.405 469.997 185.405 466.66C185.405 466.538 185.405 466.416 185.404 466.295L184.006 467.303C183.992 467.313 183.979 467.323 183.965 467.333C183.762 467.485 183.577 467.661 183.416 467.856L182.354 469.142C182.16 473.81 181.422 478.337 180.203 482.662L181.777 480.835C181.873 480.724 181.961 480.607 182.04 480.484C182.04 480.484 182.04 480.484 182.04 480.484L184.631 476.468ZM171.055 491.908C173.428 487.454 175.193 482.627 176.238 477.537L171.731 482.767C170.335 486.941 168.413 490.874 166.042 494.486L171.055 491.908ZM155.577 498.315C158.142 495.61 160.375 492.587 162.21 489.311L158.95 490.987L157.407 491.333C154.484 495.529 150.815 499.167 146.593 502.054L155.577 498.315ZM144.131 503.615C141.459 505.182 138.599 506.463 135.593 507.414C135.613 507.444 135.634 507.472 135.656 507.501L135.785 507.673L131.97 508.435L131.81 508.419C128.936 509.04 125.953 509.367 122.894 509.367C120.429 509.367 118.013 509.154 115.664 508.747C115.651 508.755 115.637 508.762 115.624 508.77C114.769 509.251 114.159 510.119 114.031 511.145L113.988 511.486C116.867 512.064 119.845 512.367 122.894 512.367C130.583 512.367 137.822 510.44 144.155 507.042C144.147 506.988 144.139 506.935 144.129 506.881C143.98 506.087 143.531 505.364 142.851 504.879L142.755 504.811L144.131 503.615ZM119.038 517.233C116.286 516.99 113.597 516.527 110.989 515.863L107.527 517.559C107.507 517.569 107.487 517.579 107.468 517.589C107.322 517.664 107.181 517.751 107.049 517.848C110.139 518.844 113.351 519.569 116.656 519.993C116.67 519.979 116.684 519.966 116.698 519.952L118.162 518.49C118.337 518.315 118.491 518.12 118.621 517.909C118.621 517.909 118.621 517.909 118.621 517.909L119.038 517.233ZM109.916 523.907C107.816 523.408 105.759 522.797 103.753 522.08L103.108 524.933C103.101 524.964 103.095 524.996 103.088 525.028C105.106 525.735 107.172 526.342 109.28 526.84L109.342 526.127L109.823 524L109.916 523.907ZM109.067 530.611C104.209 529.515 99.5555 527.879 95.1727 525.77L92.1611 527.621C97.1295 530.185 102.452 532.161 108.035 533.454L108.678 532.262C108.908 531.834 109.038 531.36 109.057 530.874C109.057 530.874 109.057 530.874 109.057 530.874L109.067 530.611ZM94.1655 533.759C89.1671 531.473 84.469 528.636 80.1477 525.323L78.7206 525.994C78.713 525.998 78.7055 526.001 78.6979 526.005C78.5847 526.059 78.4747 526.12 78.3687 526.187L77.2717 526.885C80.2381 529.242 83.383 531.382 86.6825 533.279C86.6949 533.281 86.7072 533.282 86.7195 533.283C86.8357 533.296 86.953 533.303 87.071 533.303H88.4826C88.8539 533.644 89.3028 533.893 89.7933 534.027C89.7933 534.027 89.7934 534.027 89.7935 534.027L90.9434 534.34C91.5928 534.517 92.2816 534.482 92.9101 534.241L94.1655 533.759ZM78.7841 533.581C76.9595 532.355 75.1879 531.056 73.4734 529.687L71.8558 530.972L70.975 531.527C72.7014 532.933 74.485 534.271 76.3219 535.535L78.7841 533.581ZM73.4812 537.457C71.0843 535.716 68.7802 533.852 66.5779 531.876L66.2534 531.866L65.7435 531.714L64.829 531.348C64.7711 531.325 64.7126 531.304 64.6536 531.284C64.2406 531.147 63.8032 531.096 63.3685 531.135L62.2186 531.24C62.2008 531.241 62.1831 531.243 62.1654 531.245C61.9853 531.264 61.8079 531.299 61.6349 531.349C64.1536 533.823 66.8176 536.147 69.613 538.308C69.6159 538.307 69.6188 538.307 69.6217 538.307C69.6917 538.302 69.7616 538.295 69.8313 538.285L72.131 537.972C72.5796 537.911 73.01 537.755 73.3931 537.513C73.3931 537.513 73.3932 537.513 73.3932 537.513L73.4812 537.457ZM63.1732 538.264C61.5384 536.877 59.9513 535.435 58.4147 533.94L58.0283 534.534L57.478 533.74C57.4665 533.724 57.4548 533.707 57.4431 533.691C57.2661 533.446 57.0551 533.227 56.8163 533.041L55.8755 532.311C55.8355 532.279 55.7948 532.249 55.7534 532.22C55.4638 532.017 55.142 531.863 54.8012 531.766L54.0695 531.557C54.0028 531.538 53.9357 531.521 53.8682 531.507C53.3956 531.405 52.9051 531.412 52.4343 531.53L52.0216 531.633C54.9479 534.865 58.0873 537.898 61.4174 540.709C61.4263 540.7 61.4352 540.691 61.4441 540.682C61.5435 540.578 61.6361 540.468 61.7211 540.351C61.7211 540.351 61.7211 540.351 61.7212 540.351L62.5575 539.202C62.5902 539.157 62.6217 539.112 62.6521 539.065L63.1732 538.264ZM54.0179 541.227C53.9977 541.24 53.9774 541.254 53.9569 541.267C50.3041 537.843 46.9008 534.153 43.7775 530.228L43.035 537.021C45.4178 539.852 47.9431 542.559 50.5997 545.129L51.7221 542.304C51.9624 542.248 52.1967 542.164 52.42 542.053L53.6744 541.426C53.7936 541.367 53.9083 541.3 54.0179 541.227ZM49.4569 548.005C49.4395 548.049 49.4212 548.092 49.402 548.135C46.8139 545.686 44.3434 543.112 42.0001 540.424C41.8988 540.676 41.83 540.942 41.796 541.214L41.5869 542.884C41.5087 543.509 41.6174 544.142 41.8991 544.705L43.6762 548.255M43.6909 548.284C44.1317 548.739 44.5761 549.19 45.0242 549.637C44.5202 549.369 44.0896 548.965 43.7881 548.459C43.754 548.402 43.7216 548.344 43.6909 548.284ZM44.2478 525.925L44.6322 522.408C46.3869 524.892 48.2544 527.291 50.2271 529.595M51.3539 519.286L51.6493 516.585C51.6902 516.21 51.6643 515.831 51.5728 515.465L51.073 513.469C48.6363 509.588 46.4979 505.498 44.6903 501.232L43.7737 501.635C43.7049 501.665 43.6376 501.697 43.5718 501.732C43.175 501.941 42.8331 502.228 42.5623 502.571C42.4331 502.734 42.3202 502.91 42.2251 503.095C44.7128 508.831 47.7807 514.253 51.3539 519.286ZM47.1612 500.146C48.0106 502.095 48.9319 504.006 49.9217 505.874L51.5474 505.16C51.9339 504.99 52.2772 504.747 52.5619 504.45C50.7943 501.111 49.2536 497.632 47.9606 494.033L47.9514 494.138C47.9431 494.231 47.939 494.325 47.939 494.418V498.329L47.5513 499.975L47.1612 500.146ZM50.72 485.986C51.6563 489.621 52.8504 493.151 54.2815 496.555L54.2816 494.559L54.5161 491.904L55.2615 490.703C54.3367 488 53.5635 485.226 52.9521 482.39L50.72 485.986ZM55.8844 477.667C56.3679 480.663 57.0455 483.594 57.904 486.447L60.0539 482.983C59.258 479.878 58.684 476.683 58.3496 473.418L58.2115 473.918L55.8844 477.667ZM61.7532 464.839C61.7358 465.444 61.727 466.051 61.727 466.66C61.727 470.699 62.1144 474.649 62.854 478.473L63.8384 476.887C63.9987 476.629 64.1212 476.349 64.2021 476.056C64.2021 476.056 64.2021 476.056 64.2021 476.056L65.0595 472.952C64.8397 470.885 64.727 468.785 64.727 466.66C64.727 465.916 64.7407 465.177 64.768 464.44L62.5028 464.723C62.4749 464.724 62.447 464.725 62.4192 464.727C62.1923 464.74 61.9691 464.778 61.7533 464.839C61.7533 464.839 61.7533 464.839 61.7532 464.839ZM69.8456 464.26C69.8106 465.055 69.793 465.855 69.793 466.66C69.793 468.206 69.8582 469.737 69.9862 471.25L73.1393 472.622C72.9106 470.666 72.793 468.677 72.793 466.66C72.793 466.288 72.797 465.917 72.8049 465.547L69.8456 464.26ZM77.865 468.079C77.9101 470.851 78.2057 473.563 78.7302 476.192C78.7518 476.197 78.7734 476.203 78.795 476.208C79.2785 476.326 79.7882 476.33 80.2828 476.211C80.7963 476.088 81.2649 475.839 81.6512 475.495C81.1314 472.855 80.859 470.125 80.859 467.332C80.859 466.095 80.9124 464.871 81.017 463.662L78.4349 468.476L77.865 468.079ZM87.2228 457.587C86.3766 460.692 85.925 463.959 85.925 467.332C85.925 467.531 85.9265 467.73 85.9297 467.928L86.7634 466.374L89.0497 464.4C89.6086 457.863 92.0187 451.854 95.7534 446.901L95.6864 445.629L96.0513 441.912C93.3915 444.719 91.1674 447.944 89.4875 451.478L89.4497 452.799L88.8908 455.431L87.9694 456.943L87.2228 457.587ZM89.7168 441.517C91.427 439.323 93.3503 437.302 95.4554 435.486L95.3877 435.297C95.2791 434.993 95.1261 434.711 94.9361 434.458C94.6193 434.036 94.1997 433.696 93.7108 433.474M93.7108 433.474L93.3733 433.321C91.6679 434.802 90.075 436.41 88.6092 438.129C88.6123 438.131 88.6154 438.133 88.6186 438.134C88.6761 438.165 88.7346 438.194 88.7941 438.221C88.7941 438.221 88.7941 438.221 88.7941 438.221L89.7874 438.671L89.8515 440.146L89.7168 441.517M85.1329 433.48C86.7892 431.563 88.5864 429.772 90.5085 428.121L90.4539 427.14L90.5393 424.221C88.2969 425.968 86.1966 427.89 84.2587 429.965L84.3228 431.117C84.3437 431.493 84.4311 431.862 84.581 432.208L85.1329 433.48ZM84.2328 422.899C86.2734 421.064 88.443 419.369 90.7264 417.83L90.8332 414.184C88.5704 415.599 86.4057 417.156 84.3516 418.842L84.2328 422.899ZM84.493 414.01C91.152 409.06 98.7823 405.343 107.046 403.198C107.035 403.177 107.025 403.156 107.014 403.136C106.804 402.741 106.513 402.394 106.158 402.118L105.217 401.387H105.217C105.195 401.371 105.174 401.354 105.152 401.338C104.863 401.125 104.548 400.968 104.223 400.866C103.003 400.483 101.622 400.867 100.784 401.932L100.737 401.992M108.197 406.746C103.698 407.896 99.3972 409.54 95.3546 411.616L97.9812 412.3C97.9812 412.3 97.9813 412.3 97.9813 412.3C98.7223 412.493 99.508 412.411 100.193 412.069C100.193 412.069 100.193 412.069 100.193 412.069L101.657 411.338C101.657 411.338 101.657 411.338 101.657 411.338C101.916 411.209 102.155 411.045 102.368 410.853L102.488 411.709C104.481 410.944 106.526 410.284 108.616 409.737L108.197 406.746ZM111.346 414.452C111.313 414.402 111.278 414.353 111.242 414.305C108.866 414.862 106.551 415.577 104.309 416.438C104.373 416.533 104.442 416.624 104.516 416.711C104.68 416.904 104.866 417.077 105.072 417.227C105.072 417.227 105.072 417.227 105.072 417.227L105.921 417.844L106.181 418.146L106.448 418.546L106.532 418.815C108.511 418.11 110.548 417.524 112.632 417.067L112.363 416.208C112.358 416.19 112.352 416.172 112.346 416.154C112.256 415.884 112.131 415.628 111.973 415.392L111.346 414.452ZM119.314 416.062C120.716 415.946 122.134 415.887 123.566 415.887C126.115 415.887 128.62 416.074 131.068 416.437L136.178 414.374C132.199 413.417 128.047 412.903 123.779 412.887L119.314 416.062ZM133.406 408.64C137.642 409.353 141.724 410.519 145.602 412.086L147.204 411.446C147.59 411.292 147.941 411.063 148.239 410.774L148.829 410.2C144.615 408.311 140.152 406.881 135.502 405.971C135.49 405.99 135.478 406.009 135.467 406.028C135.273 406.354 135.138 406.713 135.07 407.088L134.922 407.898L134.876 408.01L134.762 408.092L133.406 408.64ZM145.289 404.784C147.477 405.552 149.612 406.432 151.686 407.419L152.316 406.806C152.433 406.692 152.542 406.569 152.641 406.437L153.682 405.05C151.731 404.095 149.728 403.229 147.678 402.459L145.289 404.784ZM150.54 397.964C152.522 398.738 154.463 399.596 156.357 400.535L157.757 397.879C155.864 396.938 153.926 396.074 151.948 395.292L150.54 397.964ZM121.477 422.319C117.609 422.438 113.864 423.046 110.301 424.081L110.695 424.306C111.139 424.559 111.637 424.701 112.147 424.72L114.97 424.825C115.317 424.837 115.663 424.793 115.995 424.694L118.086 424.067C118.277 424.01 118.463 423.934 118.64 423.842L121.045 422.589C121.174 422.522 121.298 422.446 121.417 422.361C121.417 422.361 121.417 422.361 121.417 422.361L121.477 422.319ZM84.493 414.01L84.6034 410.239C87.5683 408.187 90.7028 406.364 93.9815 404.793C93.9815 404.793 93.9815 404.793 93.9815 404.793C94.2151 404.794 94.4485 404.82 94.6774 404.873C94.7078 404.88 94.7381 404.887 94.7683 404.895H94.7683L98.3092 405.818L98.6516 405.382L99.2206 404.083C99.3287 403.837 99.4676 403.605 99.6341 403.393M50.6807 525.446C48.7101 522.999 46.8585 520.45 45.1349 517.81ZM136.75 501.616C140.836 499.963 144.559 497.601 147.767 494.682L142.409 496.912C142.39 496.92 142.37 496.928 142.351 496.937C142.059 497.065 141.788 497.237 141.548 497.446L136.75 501.616ZM191.356 430.756C185.985 420.559 178.398 411.731 169.243 404.927L170.477 406.774L170.858 408.299L171.165 409.628C171.188 409.726 171.215 409.823 171.247 409.919C171.247 409.919 171.247 409.919 171.247 409.919L171.45 410.528C176.019 414.445 180.103 418.92 183.6 423.849L183.706 423.913L184.867 425.218L186.808 428.416C187.088 428.877 187.48 429.259 187.948 429.526L189.412 430.361C190.003 430.699 190.685 430.836 191.356 430.756Z" fill="#3B9999"/>
</svg>
